<?xml version="1.0" standalone="no"?>
<!DOCTYPE svg PUBLIC "-//W3C//DTD SVG 20010904//EN"
 "http://www.w3.org/TR/2001/REC-SVG-20010904/DTD/svg10.dtd">
<svg version="1.0" xmlns="http://www.w3.org/2000/svg"
 width="740.000000pt" height="740.000000pt" viewBox="0 0 740.000000 740.000000"
 preserveAspectRatio="xMidYMid meet">

<g transform="translate(0.000000,740.000000) scale(0.100000,-0.100000)"
fill="#000000" stroke="none">
<path d="M3675 6346 c-94 -30 -170 -89 -208 -163 -8 -15 -24 -36 -35 -46 -20
-18 -22 -17 -97 22 -101 54 -170 57 -263 11 -98 -50 -155 -130 -170 -240 -8
-52 -14 -65 -49 -98 -102 -94 -112 -226 -26 -338 75 -99 252 -142 388 -95 52
18 55 18 55 2 0 -23 -60 -240 -103 -371 -19 -58 -32 -111 -29 -118 8 -22 90
-57 297 -125 204 -68 585 -177 708 -203 38 -8 93 -14 123 -14 68 0 57 -22 155
323 l73 259 31 -7 c148 -30 236 -26 322 16 48 23 109 86 129 135 27 63 14 152
-31 219 l-25 37 15 75 c12 57 13 88 6 128 -22 117 -96 218 -203 275 -80 43
-166 49 -330 26 -173 -25 -201 -15 -317 120 -92 106 -145 148 -213 169 -62 18
-148 18 -203 1z m244 -61 c36 -20 77 -58 132 -122 135 -157 169 -169 397 -138
144 20 204 13 277 -30 56 -32 132 -116 157 -172 46 -103 30 -227 -38 -303 -93
-102 -373 -172 -494 -124 -82 33 -75 61 48 198 44 48 90 107 103 130 22 40 21
39 -32 -18 -89 -97 -259 -196 -337 -196 -15 0 -48 10 -72 23 -34 17 -48 31
-59 61 -15 39 -11 102 25 436 2 25 -7 -7 -20 -70 -55 -254 -129 -370 -238
-370 -98 0 -178 64 -284 227 -32 50 -65 100 -72 110 -6 10 13 -32 43 -94 57
-117 78 -184 68 -221 -6 -26 -55 -42 -129 -42 -64 0 -165 48 -243 117 -32 28
-49 38 -42 25 14 -25 124 -140 164 -170 42 -31 26 -46 -42 -39 -58 5 -134 37
-201 84 -28 20 -27 17 9 -15 40 -37 105 -74 178 -103 l28 -11 -40 -20 c-56
-26 -202 -21 -260 9 -154 81 -182 246 -61 363 35 33 56 81 56 128 0 65 82 170
160 205 70 31 132 26 217 -17 110 -55 122 -52 189 50 66 99 161 146 284 141
60 -3 87 -9 129 -32z m16 -769 c192 -50 328 -116 488 -235 30 -23 47 -43 47
-56 0 -20 -67 -245 -76 -254 -2 -2 -36 19 -76 46 -147 101 -346 184 -541 224
-119 24 -343 35 -437 21 -36 -5 -66 -9 -67 -8 -3 3 9 47 48 178 18 63 21 67
62 82 76 29 130 35 292 32 133 -3 177 -8 260 -30z m990 -46 c37 -72 34 -134
-7 -196 -65 -95 -189 -133 -342 -104 -54 10 -66 16 -66 31 0 15 7 19 38 19 41
0 164 25 186 37 8 4 -41 8 -109 8 l-123 0 -40 35 c-22 19 -41 38 -41 41 -1 3
32 9 72 12 39 3 99 13 132 22 78 20 213 86 244 119 14 14 26 26 28 26 1 0 14
-22 28 -50z m-1160 -280 c130 -27 289 -81 387 -130 76 -38 214 -125 224 -141
4 -7 -45 -222 -61 -267 -4 -9 -18 -3 -48 22 -51 42 -234 131 -361 175 -213 75
-449 117 -614 108 l-103 -5 6 27 c3 14 18 69 33 121 l28 95 59 12 c88 18 327
9 450 -17z m-246 -285 c249 -37 578 -150 709 -244 60 -44 55 -55 -22 -47 -145
15 -970 262 -991 297 -10 15 186 11 304 -6z"/>
<path d="M4210 5330 c0 -5 24 -22 52 -36 29 -15 73 -42 98 -61 29 -23 46 -30
49 -22 5 17 -39 51 -120 94 -72 38 -79 40 -79 25z"/>
<path d="M4190 5262 c0 -5 26 -21 58 -35 31 -13 75 -39 97 -57 41 -32 62 -25
29 11 -30 34 -184 101 -184 81z"/>
<path d="M4180 5196 c0 -8 14 -17 31 -21 16 -4 59 -26 95 -50 56 -38 87 -45
69 -15 -9 15 -89 60 -145 81 -41 15 -50 16 -50 5z"/>
<path d="M4160 5140 c0 -6 30 -23 67 -40 37 -17 82 -42 100 -56 35 -27 49 -11
16 18 -39 34 -183 95 -183 78z"/>
<path d="M4120 5015 c7 -8 18 -15 25 -15 8 0 48 -23 90 -51 74 -50 106 -59 71
-20 -20 21 -166 101 -186 101 -10 0 -10 -3 0 -15z"/>
<path d="M4090 4971 c0 -5 16 -15 36 -21 19 -7 65 -32 101 -56 66 -44 83 -51
83 -35 0 14 -65 60 -132 91 -66 31 -88 36 -88 21z"/>
<path d="M4076 4909 c3 -6 27 -19 52 -30 25 -11 66 -35 92 -54 48 -35 70 -43
70 -26 0 16 -60 57 -130 90 -67 32 -96 39 -84 20z"/>
<path d="M4060 4852 c0 -5 23 -19 50 -31 28 -13 73 -38 100 -57 51 -35 70 -42
70 -24 0 13 -96 75 -156 100 -50 22 -64 24 -64 12z"/>
<path d="M2700 5897 c-498 -250 -910 -699 -1123 -1222 -70 -171 -65 -173 20
-5 137 271 299 496 501 697 180 179 407 349 607 456 84 44 91 51 106 92 9 25
16 45 15 45 -1 0 -58 -28 -126 -63z"/>
<path d="M4990 5702 l0 -47 100 -73 c173 -127 381 -339 520 -530 83 -115 231
-368 274 -469 22 -51 42 -91 44 -89 2 2 -18 57 -44 122 -124 316 -289 575
-519 813 -98 103 -286 268 -341 300 l-34 20 0 -47z"/>
<path d="M2632 5470 c-84 -56 -272 -223 -291 -259 -8 -14 -2 -16 45 -13 50 4
57 7 87 44 36 45 155 144 236 196 39 25 50 37 42 45 -6 6 -11 19 -11 29 0 10
-4 18 -9 18 -5 0 -50 -27 -99 -60z"/>
<path d="M5010 5276 c-11 -33 -10 -35 47 -88 133 -125 161 -148 177 -148 10 0
27 -5 38 -11 12 -7 19 -7 17 -1 -7 19 -191 220 -229 251 l-39 31 -11 -34z"/>
<path d="M2280 5150 c-125 -20 -237 -76 -306 -152 -77 -86 -144 -279 -144
-415 0 -88 26 -189 70 -282 122 -255 408 -385 912 -417 l108 -7 82 -96 c45
-53 208 -242 363 -420 154 -178 284 -330 288 -338 6 -10 -12 -32 -65 -81 -40
-37 -124 -116 -186 -175 -92 -89 -117 -108 -140 -106 -15 1 -36 1 -48 1 -24
-2 -616 -591 -652 -650 -53 -85 1 -198 100 -209 31 -4 55 0 78 12 19 10 172
155 342 324 301 299 308 307 308 346 0 38 6 45 186 220 103 99 190 181 193
183 4 1 39 -35 78 -81 l72 -84 -6 -54 c-5 -51 -3 -57 28 -96 52 -65 791 -864
832 -900 104 -91 224 -102 301 -27 39 38 56 85 56 154 -1 76 -29 120 -169 259
-72 71 -131 134 -131 138 0 5 33 32 73 59 143 100 290 245 398 394 133 183
268 485 323 723 37 158 60 470 40 544 l-6 23 -29 -21 -29 -20 0 -119 c0 -419
-138 -813 -413 -1179 -71 -94 -296 -334 -348 -372 l-27 -19 -103 114 c-162
177 -471 499 -499 518 -14 10 -42 18 -62 18 -32 0 -43 8 -102 72 -36 40 -66
75 -66 79 0 14 134 145 477 469 l353 331 34 -26 c52 -40 128 -65 196 -65 87 0
166 42 570 300 216 138 260 187 260 292 0 74 -38 148 -141 274 -163 198 -370
374 -476 405 -83 24 -104 2 -300 -291 -129 -195 -263 -416 -299 -495 -37 -81
-32 -165 14 -231 18 -25 32 -49 30 -53 -2 -4 -137 -133 -301 -287 -165 -153
-351 -328 -415 -388 l-116 -110 -59 65 c-33 35 -130 145 -216 244 -86 99 -221
252 -301 340 -80 88 -164 182 -188 209 l-42 49 0 176 c0 283 -28 458 -97 601
-69 143 -231 271 -402 315 -78 20 -207 27 -281 15z m276 -51 c228 -70 366
-213 423 -440 30 -120 41 -218 48 -434 l6 -200 121 -140 c66 -77 233 -266 370
-420 313 -349 492 -552 517 -587 20 -27 20 -27 -3 -39 -12 -6 -36 -27 -54 -45
-17 -19 -35 -34 -40 -34 -5 0 -41 37 -79 82 -39 46 -221 256 -405 468 -184
212 -370 426 -413 477 -115 137 -100 129 -284 136 -393 15 -699 152 -820 367
-59 104 -78 182 -77 310 0 101 4 126 30 200 28 79 90 190 106 190 4 0 -11 -33
-33 -74 -51 -96 -73 -195 -65 -299 28 -344 292 -582 730 -657 125 -21 268 -26
309 -11 13 5 27 16 30 24 5 14 2 14 -28 1 -38 -15 -100 -20 -76 -5 7 5 -17 6
-58 3 -171 -12 -449 73 -617 189 -214 147 -306 390 -244 648 32 131 37 128 42
-25 4 -123 8 -149 35 -226 70 -200 249 -392 468 -501 100 -50 167 -67 259 -67
93 0 143 19 190 69 33 34 46 39 46 16 0 -8 4 -15 8 -15 4 0 6 30 5 68 -1 37
-4 121 -7 187 -7 240 -90 462 -220 591 -118 117 -257 169 -484 181 -67 3 -120
8 -118 10 2 3 37 11 78 19 93 17 214 11 304 -17z m-86 -55 c36 -8 102 -33 147
-55 172 -83 265 -217 327 -472 46 -190 46 -245 0 -107 -55 162 -167 338 -282
440 -65 58 -225 142 -317 165 -84 22 -192 29 -245 17 -51 -12 -62 -9 -30 8 58
31 274 33 400 4z m-164 -54 c241 -61 432 -224 555 -475 67 -138 103 -286 83
-340 -5 -12 -19 7 -50 64 -52 98 -106 174 -216 306 -222 266 -393 401 -559
439 -33 8 -64 17 -67 20 -15 15 181 4 254 -14z m-160 -31 c126 -47 266 -157
425 -334 200 -223 343 -435 341 -506 -3 -123 -142 -57 -421 201 -257 238 -390
417 -447 600 -21 67 -19 73 19 65 17 -4 55 -16 83 -26z m3131 -29 c77 -35 167
-102 271 -204 57 -56 113 -114 125 -131 11 -16 -22 11 -74 61 -155 150 -283
234 -357 234 -69 0 -106 -40 -244 -260 -184 -294 -268 -457 -268 -518 0 -60
32 -124 97 -193 113 -120 225 -151 351 -100 72 29 55 6 -22 -30 -82 -39 -160
-40 -235 -3 -66 33 -177 143 -215 213 -24 45 -28 61 -24 111 6 79 44 153 223
435 174 273 224 344 265 379 37 31 51 32 107 6z m-3242 -50 c11 -51 76 -175
128 -247 79 -107 184 -220 326 -349 148 -136 259 -217 321 -234 22 -6 40 -15
40 -20 0 -5 -24 -12 -53 -15 -136 -17 -354 87 -526 250 -176 167 -261 358
-261 585 1 94 9 104 25 30z m3233 -182 c28 -28 13 -66 -55 -140 -36 -40 -109
-126 -160 -190 -98 -123 -123 -140 -169 -119 -41 18 -31 53 39 134 34 39 104
122 154 183 51 61 102 118 115 127 28 19 60 21 76 5z m190 -160 c7 -7 12 -24
12 -39 0 -22 -38 -63 -204 -223 -113 -108 -209 -196 -215 -196 -25 0 -60 21
-66 39 -11 36 4 58 88 128 45 37 135 120 199 185 95 95 123 118 146 118 15 0
33 -5 40 -12z m163 -178 c13 -7 19 -21 19 -45 0 -31 -10 -42 -102 -121 -57
-49 -143 -125 -191 -171 -48 -46 -98 -86 -111 -89 -36 -9 -66 12 -66 46 0 37
34 77 129 149 42 32 120 100 173 150 54 50 105 91 114 91 8 0 24 -5 35 -10z
m-892 -463 c8 -11 -39 -61 -226 -238 -131 -123 -318 -302 -416 -397 -136 -132
-182 -171 -191 -162 -8 9 30 51 159 173 93 89 280 269 414 400 135 130 246
237 247 237 1 0 7 -6 13 -13z m-1128 -1030 c-269 -259 -268 -258 -279 -244 -8
10 31 52 176 188 126 119 191 173 198 167 8 -6 -22 -41 -95 -111z m602 -64
c19 -16 91 -89 159 -162 67 -74 175 -189 239 -255 305 -318 462 -490 475 -521
30 -74 13 -149 -46 -199 -55 -46 -154 -33 -229 30 -30 25 -664 712 -798 865
-40 44 -53 67 -53 90 0 86 94 179 181 179 24 0 48 -9 72 -27z m-889 -239 c35
-46 44 -83 20 -91 -6 -2 -38 23 -70 57 l-59 60 -76 -73 c-41 -39 -170 -162
-285 -271 -115 -110 -218 -212 -229 -227 -24 -34 -41 -38 -24 -6 14 28 309
326 491 498 l138 130 28 -15 c15 -8 45 -36 66 -62z m-566 -546 c21 -21 14 -66
-13 -84 -23 -15 -27 -15 -50 0 -30 20 -34 69 -7 85 23 14 55 14 70 -1z"/>
<path d="M2998 4018 c-3 -7 20 -44 51 -83 65 -82 941 -1085 948 -1085 9 0
-330 402 -557 660 -365 416 -411 470 -424 495 -9 17 -15 22 -18 13z"/>
<path d="M4120 2783 c-48 -18 -65 -69 -36 -108 20 -28 83 -26 107 4 22 27 25
74 6 89 -16 14 -58 22 -77 15z"/>
<path d="M4223 2618 l-52 -52 81 -90 c122 -136 201 -216 213 -216 6 0 35 22
65 48 l53 48 -147 157 c-81 86 -151 157 -154 157 -4 0 -31 -23 -59 -52z"/>
<path d="M4567 2258 c-31 -30 -57 -60 -57 -67 0 -7 55 -69 123 -138 l123 -125
31 15 c16 9 44 32 62 52 l31 36 -20 27 c-11 15 -68 78 -128 140 l-107 113 -58
-53z"/>
<path d="M4858 1891 c-29 -26 -33 -35 -33 -81 0 -46 4 -55 33 -81 24 -22 42
-29 72 -29 30 0 48 7 72 29 29 26 33 35 33 81 0 46 -4 55 -33 81 -24 22 -42
29 -72 29 -30 0 -48 -7 -72 -29z m117 -26 c48 -47 20 -125 -44 -125 -36 0 -68
26 -77 62 -5 22 0 33 24 58 37 36 65 38 97 5z"/>
<path d="M3921 4389 c-64 -32 -100 -69 -127 -134 l-16 -38 -27 54 c-66 133
-223 158 -314 50 -118 -141 -1 -354 268 -489 64 -32 135 -55 135 -44 0 4 -46
34 -101 67 -181 107 -289 233 -289 337 0 77 54 138 122 138 90 0 144 -66 179
-216 12 -52 25 -94 29 -94 4 0 10 22 14 49 22 167 106 282 216 297 56 8 80
-14 87 -78 9 -83 -45 -203 -168 -369 -32 -43 -55 -79 -50 -79 16 0 155 157
190 214 61 101 84 171 79 244 -4 58 -8 68 -36 93 -45 41 -107 40 -191 -2z"/>
<path d="M1827 4305 c-20 -59 -58 -267 -68 -371 -36 -388 82 -845 308 -1194
154 -236 291 -372 528 -525 104 -68 97 -51 -19 39 -261 204 -487 516 -621 856
-117 298 -163 703 -114 1015 12 82 2 226 -14 180z"/>
<path d="M1450 4039 c-83 -62 -128 -109 -151 -157 -18 -36 -20 -54 -15 -115 4
-40 7 -83 8 -97 1 -33 -14 -160 -19 -160 -2 0 -18 16 -35 36 -18 20 -67 63
-110 95 l-78 60 0 -84 c0 -112 20 -177 73 -231 39 -41 52 -47 143 -71 5 -2 23
-54 38 -116 15 -62 45 -152 66 -201 21 -48 36 -88 33 -88 -2 0 -21 9 -42 20
-21 10 -84 26 -140 34 -56 9 -111 21 -122 27 -35 18 -33 4 9 -68 45 -77 102
-136 147 -153 51 -20 121 -14 172 15 25 14 47 24 48 23 1 -2 18 -28 37 -58 30
-48 96 -134 147 -193 11 -13 -2 -10 -49 12 -73 35 -94 36 -233 19 l-98 -12 65
-62 c115 -109 201 -130 317 -78 l59 27 45 -39 c74 -63 129 -108 155 -126 25
-18 24 -18 -35 -12 -35 4 -79 1 -105 -6 -59 -15 -190 -64 -190 -70 0 -8 91
-64 134 -82 96 -40 225 -14 284 57 l27 33 100 -48 c138 -67 168 -72 60 -10
-49 28 -100 59 -113 68 l-23 18 34 36 c38 40 52 91 41 141 -5 28 -62 174 -71
186 -7 9 -76 -66 -95 -103 -28 -54 -21 -130 15 -185 15 -22 27 -43 27 -47 0
-10 -102 67 -177 134 -40 36 -73 70 -73 75 0 5 16 28 36 50 l37 40 -8 101 c-5
56 -9 133 -9 172 l-1 72 -48 -41 c-95 -79 -126 -163 -94 -254 8 -24 12 -43 8
-43 -17 1 -171 234 -171 259 0 6 8 11 18 11 30 0 78 36 95 73 14 29 17 63 15
196 l-2 160 -30 -19 c-51 -32 -118 -103 -137 -145 -21 -45 -25 -130 -8 -188
15 -56 4 -56 -24 0 -70 139 -137 350 -113 358 6 2 30 9 54 15 24 6 59 26 78
43 30 28 36 41 45 102 6 39 15 86 20 104 4 19 7 36 6 37 -1 1 -26 -7 -56 -18
-75 -28 -125 -82 -150 -160 l-19 -63 -1 90 c0 80 18 217 31 230 2 3 24 15 49
28 87 46 132 156 127 306 l-3 81 -55 -41z m20 -23 c0 -24 -71 -178 -128 -274
-30 -52 -42 -42 -42 36 0 72 31 132 98 192 49 44 72 59 72 46z m24 -53 c-8
-84 -30 -153 -58 -192 -27 -37 -96 -88 -96 -71 0 5 20 41 43 80 24 38 57 108
73 155 16 47 32 85 36 85 5 0 5 -26 2 -57z m-364 -422 c37 -72 77 -136 102
-160 35 -36 38 -41 19 -41 -27 0 -91 32 -112 56 -29 33 -57 98 -68 159 -12 62
-14 105 -6 105 2 0 32 -54 65 -119z m47 37 c65 -61 92 -115 93 -178 l0 -45
-25 30 c-14 17 -42 59 -61 95 -20 36 -48 84 -61 108 -13 23 -19 42 -13 42 6 0
36 -24 67 -52z m318 -55 c-2 -16 -7 -49 -10 -75 -8 -59 -40 -100 -96 -122 -23
-9 -43 -15 -46 -13 -2 2 13 24 33 48 20 24 53 77 73 117 37 75 54 91 46 45z
m-40 0 c-12 -33 -75 -138 -100 -168 -22 -27 -25 -28 -25 -9 0 43 34 118 71
155 41 41 66 51 54 22z m167 -420 c-4 -158 -16 -196 -68 -221 -19 -8 -36 -13
-39 -11 -11 12 90 369 104 369 3 0 4 -62 3 -137z m-46 66 c-14 -30 -37 -102
-52 -161 -14 -60 -30 -108 -34 -108 -16 0 -23 146 -10 186 12 34 107 150 117
141 2 -2 -8 -28 -21 -58z m-422 -238 c34 -35 101 -65 203 -92 42 -10 78 -21
81 -23 10 -11 -62 -36 -103 -36 -61 0 -107 23 -153 75 -69 80 -93 144 -28 76z
m100 8 c72 -14 131 -39 171 -73 40 -34 19 -34 -94 0 -96 30 -151 55 -171 79
-12 14 -11 16 11 11 13 -3 51 -10 83 -17z m506 -145 c-11 -31 -25 -95 -30
-142 -6 -48 -12 -88 -14 -89 -10 -11 -37 124 -31 157 6 38 67 130 85 130 5 0
0 -25 -10 -56z m45 -200 c-5 -31 -50 -83 -61 -72 -10 10 13 202 33 269 l18 64
8 -115 c5 -63 6 -129 2 -146z m-200 -43 c127 -61 122 -77 -12 -37 -44 13 -115
30 -157 37 -96 15 -82 29 29 29 68 0 89 -4 140 -29z m431 -121 c-1 -77 -4
-140 -7 -140 -4 0 -19 28 -34 61 -33 74 -30 116 10 177 15 23 29 42 30 42 1 0
1 -63 1 -140z m60 55 c31 -100 27 -140 -16 -188 l-29 -32 -1 146 c0 127 3 159
16 159 2 0 15 -38 30 -85z m-579 28 c90 -21 163 -41 163 -44 0 -15 -70 -34
-125 -33 -42 0 -72 7 -100 22 -46 24 -125 91 -110 92 6 0 83 -16 172 -37z
m436 -254 c81 -22 36 -34 -165 -45 -71 -4 -128 -4 -128 0 0 8 38 23 105 41 61
17 137 18 188 4z m26 -75 c-58 -62 -183 -70 -285 -18 -30 15 -54 30 -54 33 0
3 51 5 112 3 62 -1 140 1 173 6 74 10 83 6 54 -24z"/>
<path d="M5892 3963 c7 -167 31 -215 144 -288 50 -32 51 -33 57 -95 8 -77 7
-177 -2 -210 -6 -21 -10 -17 -30 39 -28 77 -80 137 -146 167 -27 13 -50 22
-52 21 -8 -8 32 -187 47 -212 22 -36 79 -70 133 -80 20 -4 37 -13 37 -19 0
-29 -44 -183 -70 -244 -38 -91 -70 -162 -74 -162 -1 0 0 38 2 85 4 66 1 96
-14 133 -17 45 -92 135 -144 172 l-25 18 1 -167 c0 -133 4 -172 17 -197 18
-35 69 -81 104 -95 l23 -9 -26 -42 c-38 -62 -128 -188 -134 -188 -3 0 -5 33
-5 74 0 68 -2 76 -35 117 -19 25 -58 66 -87 92 l-51 48 9 -42 c7 -28 6 -66 -1
-110 -22 -143 -8 -217 46 -257 l29 -21 -35 -36 c-56 -59 -170 -158 -175 -153
-3 3 2 21 10 41 21 50 19 120 -4 165 -11 20 -42 59 -70 87 -43 42 -51 46 -51
28 0 -12 -9 -59 -20 -105 -29 -123 -27 -183 11 -242 16 -27 29 -49 27 -51 -29
-22 -139 -91 -188 -119 -110 -61 -52 -39 87 33 l133 69 60 -49 c65 -52 107
-65 168 -54 38 7 149 61 192 94 l24 19 -39 8 c-22 4 -75 20 -118 35 -44 16
-99 29 -125 29 l-47 0 55 47 c30 26 75 67 99 92 42 43 45 44 75 32 157 -64
246 -49 355 60 54 54 46 59 -94 67 -80 4 -115 1 -154 -12 -27 -9 -52 -16 -55
-16 -2 0 25 39 61 88 36 48 70 98 76 110 9 20 16 23 41 17 85 -19 113 -23 146
-18 84 13 147 68 200 173 36 71 36 74 8 66 -13 -4 -65 -15 -117 -26 -63 -13
-111 -30 -144 -50 -26 -16 -50 -30 -52 -30 -2 0 12 33 30 73 36 79 75 204 95
305 l13 62 39 0 c50 0 85 19 131 69 47 52 59 96 55 210 l-3 93 -82 -60 c-45
-33 -93 -77 -106 -98 l-25 -36 -7 48 c-4 27 -10 63 -14 79 -4 17 -4 44 1 60
13 45 12 149 -2 176 -27 52 -64 92 -142 150 l-81 60 5 -118z m173 -62 c24 -35
30 -54 33 -112 3 -39 0 -75 -5 -80 -10 -10 -163 282 -163 310 0 19 98 -67 135
-118z m-120 42 c14 -38 49 -110 76 -162 28 -51 48 -95 46 -98 -3 -2 -24 11
-48 29 -64 49 -100 121 -108 219 -4 43 -4 79 0 79 4 0 19 -30 34 -67z m395
-336 c0 -124 -66 -231 -158 -254 -40 -10 -42 -10 -48 14 -10 38 4 112 27 150
20 33 129 127 137 119 6 -7 -66 -142 -113 -210 -28 -42 -39 -63 -27 -57 39 21
104 129 147 244 10 26 22 47 26 47 5 0 9 -24 9 -53z m-405 -119 c21 -40 57
-92 78 -115 41 -44 39 -51 -10 -32 -35 13 -70 45 -89 80 -15 30 -35 139 -25
139 4 0 24 -33 46 -72z m51 15 c44 -59 84 -153 65 -153 -12 0 -91 109 -120
168 l-22 43 28 -15 c15 -8 38 -27 49 -43z m-146 -468 c21 -93 37 -172 34 -174
-8 -8 -58 35 -76 65 -19 32 -23 77 -20 209 1 60 5 86 12 79 6 -6 28 -86 50
-179z m44 94 c16 -28 30 -73 33 -103 7 -64 -5 -192 -17 -180 -4 5 -16 47 -25
94 -9 47 -27 127 -41 178 -13 52 -24 96 -24 100 0 15 50 -45 74 -89z m356
-168 c0 -26 -174 -112 -255 -127 -39 -7 -40 -7 -22 13 34 38 175 101 275 122
1 1 2 -3 2 -8z m28 -33 c-64 -117 -158 -170 -264 -148 -62 13 -77 27 -37 36
126 27 180 51 263 113 30 23 56 41 58 41 2 0 -7 -19 -20 -42z m-644 -161 c13
-59 36 -219 36 -249 0 -19 -50 26 -65 58 -14 29 -15 54 -9 154 4 66 10 117 15
115 4 -3 15 -38 23 -78z m76 -22 c24 -50 25 -105 3 -170 -19 -56 -26 -48 -38
45 -6 52 -29 162 -41 205 -10 34 53 -33 76 -80z m-280 -248 c16 -36 20 -61 16
-89 -8 -49 -35 -118 -47 -118 -5 0 -9 30 -9 68 0 63 -13 172 -27 217 -11 40
44 -24 67 -78z m629 67 c2 -2 -9 -8 -25 -15 -29 -10 -62 -17 -218 -39 -44 -7
-87 -14 -95 -17 -11 -3 -10 1 4 12 27 23 102 57 145 65 32 7 180 2 189 -6z
m-689 -154 c6 -83 6 -148 1 -153 -15 -15 -52 49 -58 101 -6 55 25 218 39 204
5 -5 13 -73 18 -152z m690 124 c0 -10 -43 -43 -85 -66 -28 -16 -57 -22 -100
-22 -59 0 -135 18 -135 33 0 4 49 13 108 19 60 7 128 18 153 26 53 17 59 18
59 10z m-408 -290 c113 -36 139 -54 77 -54 -25 0 -168 24 -279 47 l-25 5 24
19 c34 27 71 24 203 -17z m-79 -46 c75 -13 137 -26 137 -30 0 -10 -107 -48
-136 -48 -14 0 -40 7 -57 15 -44 21 -116 85 -97 85 8 0 77 -10 153 -22z"/>
<path d="M4952 3360 c-18 -11 -41 -34 -51 -51 -18 -29 -19 -30 -26 -10 -9 30
-53 61 -87 61 -42 0 -68 -17 -83 -54 -28 -68 22 -150 123 -204 70 -37 107 -43
44 -7 -65 37 -94 62 -124 107 -34 51 -35 82 -3 113 31 31 46 31 84 0 22 -19
33 -41 42 -82 l13 -57 11 45 c18 67 41 104 76 122 36 17 55 13 70 -14 15 -29
-5 -89 -57 -166 l-45 -68 36 35 c44 42 95 142 95 185 0 61 -56 83 -118 45z"/>
<path d="M2833 3200 c-18 -10 -40 -34 -49 -52 -12 -23 -19 -28 -22 -18 -2 8
-16 27 -30 43 -20 20 -35 27 -64 27 -71 0 -108 -67 -79 -143 19 -49 102 -115
186 -147 38 -15 30 -5 -22 26 -108 63 -165 142 -143 200 12 31 51 47 85 34 28
-11 64 -78 65 -118 0 -36 17 -17 24 28 7 47 55 106 92 113 28 5 54 -15 54 -42
0 -36 -32 -108 -70 -158 -22 -29 -36 -53 -31 -53 13 0 88 102 106 143 44 106
-13 172 -102 117z"/>
<path d="M3956 1959 c-107 -11 -207 -32 -405 -85 -322 -86 -504 -120 -765
-140 -212 -16 -276 -26 -374 -56 -122 -36 -308 -142 -365 -206 l-19 -20 63 19
c57 18 277 42 289 31 3 -2 -6 -12 -20 -21 -52 -33 -133 -117 -176 -183 -42
-62 -94 -173 -94 -199 0 -6 26 13 58 41 83 75 195 126 319 146 55 10 107 15
115 12 7 -3 19 -33 26 -66 14 -67 45 -121 82 -139 35 -18 178 -16 291 3 134
23 274 60 594 159 277 86 435 128 529 141 46 6 48 5 42 -14 -4 -12 -8 -67 -9
-124 -1 -94 1 -106 22 -136 41 -58 92 -77 206 -76 88 1 115 5 226 41 69 22
148 44 175 47 57 8 139 -11 215 -50 l52 -26 -7 29 c-21 84 -117 175 -218 205
-21 6 -38 14 -38 18 0 14 255 70 320 70 l65 1 -48 44 c-26 24 -73 56 -105 72
-55 27 -63 28 -264 33 -113 3 -210 8 -214 12 -3 4 -11 49 -15 100 -22 231 -77
290 -299 317 -94 12 -139 12 -254 0z m329 -51 c71 -15 122 -43 140 -78 30 -57
46 -157 52 -319 l6 -163 -51 35 c-72 49 -131 61 -276 54 -149 -7 -234 -27
-610 -147 -413 -131 -584 -170 -752 -170 -71 0 -83 3 -102 23 -31 33 -49 82
-62 175 -19 127 -6 205 44 261 l21 25 -33 -23 c-48 -33 -65 -74 -70 -168 l-5
-83 -50 0 c-89 0 -173 -21 -264 -65 -48 -24 -90 -42 -91 -40 -8 8 72 120 116
162 55 54 105 86 170 112 l47 19 -60 12 c-38 8 -100 11 -170 7 l-110 -5 108
53 c150 73 238 93 490 111 227 16 427 46 607 93 63 16 194 50 290 75 96 24
213 49 260 55 95 11 278 5 355 -11z m440 -408 c77 0 160 -5 185 -11 50 -11
160 -58 160 -68 0 -4 -40 -12 -89 -19 -84 -11 -219 -50 -306 -88 l-40 -17 72
-18 c40 -10 97 -30 127 -45 53 -26 131 -83 123 -90 -2 -2 -25 3 -51 12 -73 25
-185 15 -331 -31 -136 -42 -233 -54 -300 -35 -53 15 -59 30 -12 30 56 0 131
28 174 64 61 53 75 92 81 222 l5 112 31 -9 c17 -5 94 -9 171 -9z m-388 -116
c56 -15 108 -52 116 -83 23 -89 -205 -189 -274 -120 -20 20 -21 28 -15 117 4
53 10 100 13 105 6 11 90 1 160 -19z"/>
</g>
</svg>
