<?xml version="1.0" standalone="no"?>
<!DOCTYPE svg PUBLIC "-//W3C//DTD SVG 20010904//EN"
 "http://www.w3.org/TR/2001/REC-SVG-20010904/DTD/svg10.dtd">
<svg version="1.0" xmlns="http://www.w3.org/2000/svg"
 width="1280.000000pt" height="1280.000000pt" viewBox="0 0 1280.000000 1280.000000"
 preserveAspectRatio="xMidYMid meet">

<g transform="translate(0.000000,1280.000000) scale(0.100000,-0.100000)"
fill="#000000" stroke="none">
<path d="M6015 9854 c-441 -54 -860 -183 -1232 -379 -101 -53 -101 -53 -120
-33 -44 49 -30 48 -708 48 -683 0 -683 0 -719 -51 -14 -21 -16 -101 -16 -831
l0 -807 -44 -108 c-124 -304 -206 -644 -236 -981 -16 -173 -8 -615 15 -772 74
-525 266 -1039 539 -1440 l51 -75 5 -405 5 -405 33 -67 c60 -122 170 -205 303
-228 169 -29 349 67 424 226 l25 53 118 -78 c454 -302 906 -476 1462 -563 128
-19 184 -22 470 -23 321 0 383 4 599 41 553 94 1082 327 1524 671 60 46 110
83 111 81 2 -2 8 -34 15 -73 31 -177 164 -308 339 -335 170 -27 345 68 420
228 l27 57 5 555 5 555 47 85 c144 262 275 643 337 985 40 218 46 304 46 615
0 311 -6 397 -46 615 -62 337 -186 704 -335 984 l-44 83 0 657 c0 604 -1 659
-18 691 -26 53 -69 63 -222 56 -169 -8 -246 -26 -370 -87 -93 -46 -117 -64
-203 -151 -59 -58 -104 -95 -110 -91 -7 4 -43 30 -82 58 -38 29 -125 87 -192
129 -422 264 -868 425 -1393 502 -153 23 -676 28 -835 8z m815 -218 c544 -79
1032 -272 1460 -577 52 -38 106 -77 119 -87 l25 -20 -20 -78 c-18 -76 -19
-129 -19 -1374 l0 -1295 24 -52 c29 -64 101 -134 164 -158 l47 -18 2 -726 c1
-629 1 -923 -1 -1176 l-1 -60 -118 -103 c-458 -399 -1077 -670 -1722 -753
-162 -21 -662 -18 -815 4 -594 88 -1117 305 -1558 645 l-57 45 0 1562 0 1562
65 33 c80 41 176 138 211 214 54 117 54 119 54 1073 l0 881 49 30 c358 221
829 379 1301 437 158 19 630 14 790 -9z m-3160 -1130 l0 -775 26 -20 c32 -26
46 -26 73 -3 l21 17 0 755 c0 415 3 765 6 778 6 22 8 22 158 20 l151 -3 5
-778 c5 -756 6 -779 24 -793 25 -18 47 -18 72 0 18 14 19 37 24 793 l5 778
120 0 120 0 0 -940 c0 -720 -3 -950 -12 -981 -26 -84 -103 -154 -196 -178 -31
-8 -65 -20 -77 -26 -51 -27 -49 49 -50 -1779 0 -1630 -1 -1706 -18 -1740 -10
-19 -35 -48 -56 -65 -30 -25 -48 -31 -100 -34 -79 -5 -134 20 -173 80 l-28 42
-5 1727 -5 1727 -24 26 c-14 15 -43 29 -73 35 -93 20 -160 70 -205 154 -17 30
-18 96 -21 995 l-2 962 120 0 120 0 0 -774z m5558 -2016 c2 -2040 0 -2796 -9
-2826 -13 -51 -68 -109 -116 -125 -19 -6 -60 -9 -89 -7 -65 6 -127 45 -155 98
-18 33 -19 84 -19 1192 l0 1158 91 0 c87 0 92 1 120 29 41 41 41 98 0 143
l-29 33 -179 3 c-109 1 -187 7 -201 14 -12 6 -27 27 -33 47 -7 24 -9 438 -7
1286 3 1148 5 1255 21 1308 68 230 258 396 485 426 37 5 78 8 92 7 l25 -1 3
-2785z m263 954 c116 -343 169 -670 169 -1048 0 -288 -28 -522 -95 -786 -31
-125 -108 -366 -120 -378 -3 -3 -5 523 -5 1168 0 645 2 1171 5 1168 3 -3 24
-58 46 -124z m-6117 -359 c30 -28 82 -64 115 -80 l61 -29 0 -1073 c0 -803 -3
-1072 -11 -1067 -17 10 -133 257 -185 390 -84 219 -154 490 -190 741 -9 63
-18 217 -21 368 -7 323 12 514 78 805 28 122 26 120 64 54 19 -32 59 -82 89
-109z"/>
<path d="M6135 8875 c-212 -25 -405 -69 -588 -136 -118 -43 -340 -148 -419
-199 -42 -26 -48 -34 -48 -64 0 -35 27 -66 58 -66 8 0 53 22 101 50 244 141
547 241 859 284 149 21 455 21 604 0 436 -59 807 -215 1159 -486 80 -62 114
-71 142 -40 34 37 22 67 -50 127 -189 156 -459 306 -723 401 -331 120 -748
169 -1095 129z"/>
<path d="M5621 7509 c-206 -27 -409 -139 -541 -301 -64 -79 -134 -219 -161
-323 -29 -112 -29 -299 0 -410 26 -97 77 -208 126 -272 61 -80 461 -495 897
-930 l414 -413 44 0 45 0 525 527 c580 583 768 782 819 866 80 134 114 266
113 437 -1 142 -24 239 -87 365 -256 513 -935 619 -1335 209 l-80 -82 -73 75
c-143 148 -308 230 -506 253 -96 11 -109 11 -200 -1z m264 -226 c109 -27 183
-71 276 -163 65 -65 95 -103 124 -161 41 -83 65 -104 121 -102 45 1 77 30 108
97 116 251 411 395 691 337 223 -46 414 -233 471 -461 12 -48 15 -93 11 -180
-5 -132 -27 -206 -86 -297 -44 -68 -414 -454 -876 -913 l-326 -325 -512 515
c-282 283 -551 559 -599 613 -133 150 -179 262 -179 437 0 178 57 317 181 441
109 109 206 154 390 183 39 6 139 -4 205 -21z"/>
<path d="M8223 4886 c-90 -108 -308 -317 -388 -372 -16 -11 -59 -40 -95 -65
-296 -204 -658 -341 -1038 -393 -163 -23 -460 -21 -632 4 -484 69 -912 273
-1283 609 -43 39 -87 71 -97 71 -28 0 -60 -35 -60 -65 0 -17 20 -44 69 -90
289 -276 670 -489 1061 -591 564 -148 1159 -96 1691 148 93 43 294 162 391
231 40 29 85 60 100 69 42 28 348 330 364 360 17 33 18 90 2 106 -22 22 -55
13 -85 -22z"/>
</g>
</svg>
